<svg xmlns="http://www.w3.org/2000/svg" xmlns:xlink="http://www.w3.org/1999/xlink" width="500" zoomAndPan="magnify" viewBox="0 0 375 374.999991" height="500" preserveAspectRatio="xMidYMid meet" version="1.0"><defs><g/></defs><g fill="#15789a" fill-opacity="1"><g transform="translate(220.031825, 268.707327)"><g><path d="M 25.015625 -37.84375 L 18.40625 -37.84375 L 3.59375 -1.1875 L 10.59375 -1.1875 L 13.203125 -8.234375 C 13.390625 -8.734375 13.75 -8.984375 14.28125 -8.984375 L 29.140625 -8.984375 C 29.671875 -8.984375 30.03125 -8.734375 30.21875 -8.234375 L 32.828125 -1.1875 L 39.828125 -1.1875 Z M 26.90625 -39.453125 L 42.65625 -0.421875 C 42.65625 -0.421875 42.691406 -0.285156 42.765625 -0.015625 C 42.847656 0.242188 42.828125 0.507812 42.703125 0.78125 C 42.578125 1.050781 42.203125 1.1875 41.578125 1.1875 L 32.015625 1.1875 C 31.484375 1.1875 31.125 0.929688 30.9375 0.421875 L 28.328125 -6.625 L 15.09375 -6.625 L 12.484375 0.421875 C 12.296875 0.929688 11.9375 1.1875 11.40625 1.1875 L 1.84375 1.1875 C 1.84375 1.1875 1.703125 1.171875 1.421875 1.140625 C 1.140625 1.109375 0.894531 0.976562 0.6875 0.75 C 0.476562 0.53125 0.5 0.140625 0.75 -0.421875 L 16.5 -39.453125 C 16.695312 -39.953125 17.0625 -40.203125 17.59375 -40.203125 L 25.828125 -40.203125 C 26.359375 -40.203125 26.71875 -39.953125 26.90625 -39.453125 Z M 27.203125 -16.03125 C 27.453125 -15.4375 27.472656 -15.023438 27.265625 -14.796875 C 27.054688 -14.578125 26.8125 -14.457031 26.53125 -14.4375 C 26.25 -14.425781 26.109375 -14.421875 26.109375 -14.421875 L 17.3125 -14.421875 C 16.675781 -14.421875 16.296875 -14.554688 16.171875 -14.828125 C 16.046875 -15.097656 16.019531 -15.363281 16.09375 -15.625 C 16.175781 -15.894531 16.21875 -16.03125 16.21875 -16.03125 L 20.578125 -27.390625 C 20.765625 -27.921875 20.984375 -28.222656 21.234375 -28.296875 C 21.484375 -28.378906 21.726562 -28.34375 21.96875 -28.1875 C 22.207031 -28.03125 22.394531 -27.859375 22.53125 -27.671875 C 22.675781 -27.484375 22.75 -27.390625 22.75 -27.390625 Z M 24.359375 -16.796875 L 21.65625 -23.703125 L 19.015625 -16.796875 Z M 24.359375 -16.796875 "/></g></g></g><g fill="#15789a" fill-opacity="1"><g transform="translate(266.280417, 268.707327)"><g><path d="M 10.640625 -37.84375 L 4.109375 -37.84375 L 4.109375 -1.1875 L 10.640625 -1.1875 Z M 13 -39.015625 L 13 0 C 13 0.34375 12.863281 0.625 12.59375 0.84375 C 12.332031 1.070312 12.078125 1.1875 11.828125 1.1875 L 2.9375 1.1875 C 2.582031 1.1875 2.296875 1.050781 2.078125 0.78125 C 1.859375 0.507812 1.75 0.25 1.75 0 L 1.75 -39.015625 C 1.75 -39.367188 1.878906 -39.65625 2.140625 -39.875 C 2.410156 -40.09375 2.675781 -40.203125 2.9375 -40.203125 L 11.828125 -40.203125 C 12.171875 -40.203125 12.453125 -40.066406 12.671875 -39.796875 C 12.890625 -39.523438 13 -39.265625 13 -39.015625 Z M 13 -39.015625 "/></g></g></g><g fill="#f65100" fill-opacity="1"><g transform="translate(70.682121, 221.05861)"><g><path d="M 74.015625 -97.234375 C 74.523438 -96.953125 74.503906 -96.472656 73.953125 -95.796875 C 73.410156 -95.128906 72.640625 -94.421875 71.640625 -93.671875 C 70.648438 -92.929688 69.691406 -92.269531 68.765625 -91.6875 C 67.835938 -91.101562 67.257812 -90.757812 67.03125 -90.65625 C 66.226562 -90.320312 65.773438 -90.050781 65.671875 -89.84375 C 65.578125 -89.632812 65.226562 -89.253906 64.625 -88.703125 C 64.03125 -88.066406 63.160156 -87.53125 62.015625 -87.09375 C 60.867188 -86.65625 59.894531 -86.316406 59.09375 -86.078125 C 55.9375 -84.960938 52.867188 -83.867188 49.890625 -82.796875 C 46.910156 -81.734375 43.8125 -80.925781 40.59375 -80.375 C 39.863281 -80.226562 39.035156 -80.066406 38.109375 -79.890625 C 37.179688 -79.710938 36.363281 -79.507812 35.65625 -79.28125 C 34.875 -78.957031 34.46875 -78.734375 34.4375 -78.609375 C 34.40625 -78.484375 34.269531 -77.953125 34.03125 -77.015625 L 33.3125 -74.265625 C 32.90625 -72.421875 32.546875 -70.582031 32.234375 -68.75 C 31.921875 -66.914062 31.570312 -65.035156 31.1875 -63.109375 C 30.78125 -61.273438 30.359375 -59.4375 29.921875 -57.59375 C 29.492188 -55.75 28.910156 -53.96875 28.171875 -52.25 C 28.023438 -52 27.832031 -51.40625 27.59375 -50.46875 C 27.363281 -49.539062 27.144531 -48.65625 26.9375 -47.8125 C 26.726562 -46.976562 26.585938 -46.5625 26.515625 -46.5625 L 26.484375 -46.921875 L 26.203125 -45.921875 C 26.460938 -46.515625 26.566406 -46.421875 26.515625 -45.640625 C 26.472656 -44.859375 26.457031 -44.425781 26.46875 -44.34375 C 28.570312 -44.71875 30.625 -45.101562 32.625 -45.5 C 34.632812 -45.894531 36.648438 -46.226562 38.671875 -46.5 C 40.617188 -46.84375 42.570312 -47.050781 44.53125 -47.125 C 46.488281 -47.195312 48.4375 -47.363281 50.375 -47.625 C 50.539062 -47.632812 50.890625 -47.804688 51.421875 -48.140625 C 51.960938 -48.484375 52.164062 -48.082031 52.03125 -46.9375 C 51.945312 -46.175781 51.492188 -45.609375 50.671875 -45.234375 C 49.847656 -44.867188 48.96875 -44.625 48.03125 -44.5 C 47.09375 -44.375 46.351562 -44.203125 45.8125 -43.984375 C 45.09375 -43.742188 44.484375 -43.414062 43.984375 -43 C 43.492188 -42.59375 42.738281 -42.257812 41.71875 -42 C 40.757812 -41.664062 39.816406 -41.367188 38.890625 -41.109375 C 37.972656 -40.847656 37.035156 -40.550781 36.078125 -40.21875 C 35.378906 -39.988281 34.597656 -39.832031 33.734375 -39.75 C 32.878906 -39.664062 32.101562 -39.425781 31.40625 -39.03125 C 30.945312 -38.75 30.441406 -38.457031 29.890625 -38.15625 C 29.335938 -37.851562 28.664062 -37.625 27.875 -37.46875 C 27.070312 -37.3125 26.347656 -37.160156 25.703125 -37.015625 C 25.054688 -36.867188 24.570312 -36.375 24.25 -35.53125 C 23.914062 -34.675781 23.765625 -33.65625 23.796875 -32.46875 C 23.828125 -31.28125 23.722656 -30.222656 23.484375 -29.296875 C 23.421875 -29.128906 23.273438 -28.5625 23.046875 -27.59375 C 22.816406 -26.632812 22.550781 -25.566406 22.25 -24.390625 C 21.945312 -23.210938 21.628906 -22.195312 21.296875 -21.34375 C 20.972656 -20.5 20.726562 -20.066406 20.5625 -20.046875 C 20.476562 -20.035156 20.484375 -20.175781 20.578125 -20.46875 C 20.679688 -20.769531 20.6875 -20.957031 20.59375 -21.03125 C 20.40625 -20.445312 20.238281 -19.859375 20.09375 -19.265625 C 19.945312 -18.671875 19.816406 -18.117188 19.703125 -17.609375 L 20.140625 -18.15625 C 20.140625 -18.15625 19.988281 -17.382812 19.6875 -15.84375 C 19.382812 -14.300781 19.019531 -12.523438 18.59375 -10.515625 C 18.175781 -8.503906 17.78125 -6.660156 17.40625 -4.984375 C 17.039062 -3.316406 16.832031 -2.3125 16.78125 -1.96875 C 16.25 0.28125 15.816406 2.648438 15.484375 5.140625 C 15.160156 7.640625 14.347656 9.769531 13.046875 11.53125 C 12.753906 11.96875 12.710938 12.21875 12.921875 12.28125 C 13.128906 12.34375 12.800781 12.582031 11.9375 13 C 10.988281 13.414062 9.769531 13.34375 8.28125 12.78125 C 6.800781 12.226562 5.628906 11.710938 4.765625 11.234375 C 3.804688 10.660156 2.941406 9.957031 2.171875 9.125 C 1.398438 8.300781 0.878906 7.367188 0.609375 6.328125 C 0.421875 5.285156 0.46875 4.523438 0.75 4.046875 C 1.039062 3.566406 1.3125 2.945312 1.5625 2.1875 L 1.125 2.71875 C 1.039062 2.726562 1.082031 2.296875 1.25 1.421875 C 1.414062 0.546875 1.632812 -0.332031 1.90625 -1.21875 C 2.1875 -2.113281 2.410156 -2.566406 2.578125 -2.578125 C 2.585938 -2.492188 2.570312 -2.40625 2.53125 -2.3125 C 2.5 -2.226562 2.488281 -2.109375 2.5 -1.953125 L 5.46875 -12.203125 C 5.09375 -10.941406 4.757812 -9.90625 4.46875 -9.09375 C 4.175781 -8.289062 4.03125 -7.929688 4.03125 -8.015625 C 4.03125 -8.015625 4.265625 -8.769531 4.734375 -10.28125 C 5.203125 -11.800781 5.753906 -13.695312 6.390625 -15.96875 C 7.023438 -18.25 7.660156 -20.566406 8.296875 -22.921875 C 8.941406 -25.285156 9.503906 -27.328125 9.984375 -29.046875 C 10.472656 -30.773438 10.785156 -31.847656 10.921875 -32.265625 C 10.023438 -32.179688 8.878906 -32.316406 7.484375 -32.671875 C 6.097656 -33.023438 5.035156 -33.640625 4.296875 -34.515625 C 3.566406 -35.390625 3.675781 -36.445312 4.625 -37.6875 C 4.976562 -38.132812 5.394531 -38.421875 5.875 -38.546875 C 6.363281 -38.679688 6.804688 -38.8125 7.203125 -38.9375 L 10.796875 -39.890625 C 11.972656 -40.316406 12.6875 -40.707031 12.9375 -41.0625 C 13.195312 -41.425781 13.441406 -42.195312 13.671875 -43.375 C 14.015625 -44.875 14.378906 -46.359375 14.765625 -47.828125 C 15.148438 -49.304688 15.5625 -50.800781 16 -52.3125 C 16.8125 -54.851562 17.75 -57.421875 18.8125 -60.015625 C 19.875 -62.617188 20.703125 -65.097656 21.296875 -67.453125 L 20.65625 -66.40625 C 20.570312 -66.394531 20.597656 -66.765625 20.734375 -67.515625 C 20.867188 -68.273438 21.039062 -69.070312 21.25 -69.90625 C 21.457031 -70.75 21.550781 -71.25 21.53125 -71.40625 C 21.851562 -72.332031 22.09375 -73.253906 22.25 -74.171875 C 22.40625 -75.097656 22.609375 -75.976562 22.859375 -76.8125 C 21.898438 -76.632812 20.660156 -76.515625 19.140625 -76.453125 C 17.628906 -76.398438 16.164062 -76.507812 14.75 -76.78125 C 13.332031 -77.050781 12.195312 -77.59375 11.34375 -78.40625 C 10.488281 -79.226562 10.226562 -80.472656 10.5625 -82.140625 C 10.832031 -83.410156 11.503906 -84.175781 12.578125 -84.4375 C 13.660156 -84.707031 14.734375 -84.9375 15.796875 -85.125 C 16.679688 -85.289062 17.523438 -85.425781 18.328125 -85.53125 C 19.140625 -85.644531 19.945312 -85.785156 20.75 -85.953125 C 21.226562 -85.992188 21.796875 -86.066406 22.453125 -86.171875 C 23.109375 -86.273438 23.671875 -86.4375 24.140625 -86.65625 C 24.765625 -86.875 25.15625 -87.03125 25.3125 -87.125 C 25.46875 -87.226562 25.628906 -87.695312 25.796875 -88.53125 C 25.972656 -89.28125 26.117188 -90.09375 26.234375 -90.96875 C 26.359375 -91.84375 26.585938 -92.625 26.921875 -93.3125 C 27.546875 -94.519531 28.363281 -95.171875 29.375 -95.265625 C 30.394531 -95.367188 31.425781 -95.082031 32.46875 -94.40625 C 33.519531 -93.726562 34.421875 -92.890625 35.171875 -91.890625 C 35.929688 -90.898438 36.359375 -89.914062 36.453125 -88.9375 C 39.953125 -89.9375 43.582031 -90.675781 47.34375 -91.15625 C 51.113281 -91.644531 54.804688 -92.304688 58.421875 -93.140625 C 60.253906 -93.566406 62.09375 -94.007812 63.9375 -94.46875 C 65.78125 -94.9375 67.617188 -95.421875 69.453125 -95.921875 C 69.859375 -96.046875 70.664062 -96.226562 71.875 -96.46875 C 73.082031 -96.707031 73.796875 -96.960938 74.015625 -97.234375 Z M 21.65625 -34.421875 C 21.582031 -34.328125 21.546875 -34.257812 21.546875 -34.21875 C 21.546875 -34.175781 21.578125 -34.285156 21.640625 -34.546875 L 21.640625 -34.640625 C 20.347656 -29.929688 19.007812 -25.21875 17.625 -20.5 C 16.238281 -15.789062 14.992188 -11.082031 13.890625 -6.375 C 14.429688 -8.476562 15.097656 -10.550781 15.890625 -12.59375 C 16.679688 -14.632812 17.378906 -16.710938 17.984375 -18.828125 C 18.640625 -21.421875 19.269531 -24.019531 19.875 -26.625 C 20.488281 -29.226562 21.082031 -31.828125 21.65625 -34.421875 Z M 11.390625 -32.4375 C 11.242188 -32.34375 11.046875 -31.851562 10.796875 -30.96875 C 10.546875 -30.09375 10.332031 -29.273438 10.15625 -28.515625 Z M 21.71875 -35.03125 C 21.644531 -34.9375 21.617188 -34.804688 21.640625 -34.640625 C 21.628906 -34.722656 21.660156 -34.8125 21.734375 -34.90625 Z M 21.71875 -35.03125 C 21.707031 -35.113281 21.722656 -35.175781 21.765625 -35.21875 C 21.804688 -35.269531 21.828125 -35.296875 21.828125 -35.296875 L 21.8125 -35.40625 C 21.738281 -35.320312 21.707031 -35.195312 21.71875 -35.03125 Z M 21.71875 -35.03125 "/></g></g></g><g fill="#f65100" fill-opacity="1"><g transform="translate(123.782059, 215.955199)"><g><path d="M 45.75 -35.75 C 46.625 -36.8125 47.28125 -37.160156 47.71875 -36.796875 C 48.164062 -36.429688 48.457031 -35.785156 48.59375 -34.859375 C 48.726562 -33.929688 48.742188 -33.128906 48.640625 -32.453125 C 48.441406 -31.117188 48.035156 -29.789062 47.421875 -28.46875 C 46.816406 -27.144531 46.203125 -25.832031 45.578125 -24.53125 C 44.078125 -21.4375 42.617188 -18.285156 41.203125 -15.078125 C 39.785156 -11.867188 38.203125 -8.703125 36.453125 -5.578125 C 34.566406 -2.210938 32.578125 1.144531 30.484375 4.5 C 28.390625 7.851562 26.0625 11.050781 23.5 14.09375 C 22.082031 15.707031 20.453125 17.15625 18.609375 18.4375 C 16.765625 19.71875 14.847656 20.429688 12.859375 20.578125 C 10.867188 20.734375 8.816406 20.050781 6.703125 18.53125 C 4.835938 17.070312 3.453125 15.253906 2.546875 13.078125 C 1.648438 10.910156 1.039062 8.59375 0.71875 6.125 C 0.394531 3.664062 0.175781 1.375 0.0625 -0.75 C -0.03125 -4.175781 0.144531 -7.585938 0.59375 -10.984375 C 1.050781 -14.390625 1.53125 -17.757812 2.03125 -21.09375 C 2.09375 -21.257812 2.070312 -21.867188 1.96875 -22.921875 C 1.875 -23.984375 1.972656 -24.738281 2.265625 -25.1875 C 2.191406 -25.09375 2.171875 -24.863281 2.203125 -24.5 C 2.234375 -24.132812 2.226562 -23.738281 2.1875 -23.3125 C 2.3125 -23.75 2.410156 -24.195312 2.484375 -24.65625 C 2.566406 -25.113281 2.664062 -25.546875 2.78125 -25.953125 L 2.421875 -25.921875 C 2.148438 -27.128906 2.238281 -28.59375 2.6875 -30.3125 C 3.132812 -32.03125 3.460938 -33.476562 3.671875 -34.65625 C 3.953125 -36.0625 4.265625 -37.519531 4.609375 -39.03125 C 4.953125 -40.539062 5.304688 -42.007812 5.671875 -43.4375 C 6.316406 -46.125 7 -48.8125 7.71875 -51.5 C 8.445312 -54.195312 9.09375 -56.890625 9.65625 -59.578125 C 10.207031 -62.242188 10.929688 -64.890625 11.828125 -67.515625 C 12.722656 -70.140625 13.664062 -72.726562 14.65625 -75.28125 C 15.5625 -77.75 16.554688 -80.179688 17.640625 -82.578125 C 17.773438 -82.835938 18.039062 -83.457031 18.4375 -84.4375 C 18.84375 -85.414062 19.285156 -86.378906 19.765625 -87.328125 C 20.242188 -88.285156 20.566406 -88.734375 20.734375 -88.671875 L 19.96875 -86.484375 L 23.21875 -93.5625 L 23.109375 -93.4375 C 23.378906 -93.945312 23.660156 -94.601562 23.953125 -95.40625 C 24.242188 -96.21875 24.535156 -96.800781 24.828125 -97.15625 L 27.265625 -101.203125 C 28.066406 -102.359375 28.9375 -103.59375 29.875 -104.90625 C 30.8125 -106.226562 31.945312 -107.15625 33.28125 -107.6875 C 35.019531 -108.425781 36.675781 -108.460938 38.25 -107.796875 C 39.832031 -107.128906 41.179688 -106.070312 42.296875 -104.625 C 43.421875 -103.175781 44.1875 -101.648438 44.59375 -100.046875 L 44.734375 -99.9375 L 44.796875 -99.328125 C 45.265625 -96.910156 45.265625 -94.328125 44.796875 -91.578125 C 44.328125 -88.835938 43.644531 -86.132812 42.75 -83.46875 C 41.863281 -80.800781 40.945312 -78.351562 40 -76.125 C 39.21875 -74.082031 38.382812 -71.929688 37.5 -69.671875 C 36.613281 -67.421875 35.472656 -65.410156 34.078125 -63.640625 C 33.140625 -62.398438 32.40625 -61.117188 31.875 -59.796875 C 31.34375 -58.472656 30.703125 -57.082031 29.953125 -55.625 C 28.023438 -51.664062 25.976562 -47.738281 23.8125 -43.84375 C 21.644531 -39.945312 19.347656 -36.160156 16.921875 -32.484375 C 16.335938 -31.609375 15.859375 -30.800781 15.484375 -30.0625 C 15.109375 -29.332031 14.8125 -28.382812 14.59375 -27.21875 C 14.375 -26.050781 14.15625 -24.863281 13.9375 -23.65625 C 13.726562 -22.445312 13.523438 -21.21875 13.328125 -19.96875 C 13.117188 -18.71875 12.910156 -17.46875 12.703125 -16.21875 C 12.492188 -14.96875 12.285156 -13.722656 12.078125 -12.484375 C 12.046875 -11.898438 11.890625 -10.976562 11.609375 -9.71875 C 11.328125 -8.46875 11.226562 -7.757812 11.3125 -7.59375 C 11.125 -6.1875 11.03125 -4.660156 11.03125 -3.015625 L 11.640625 -6.765625 C 12.015625 -6.316406 12.128906 -5.390625 11.984375 -3.984375 C 11.835938 -2.578125 11.75 -1.582031 11.71875 -1 C 11.632812 0.800781 11.691406 2.71875 11.890625 4.75 C 11.960938 5.476562 12.097656 6.445312 12.296875 7.65625 C 12.492188 8.875 12.863281 9.96875 13.40625 10.9375 C 13.945312 11.914062 14.710938 12.441406 15.703125 12.515625 C 17.097656 12.546875 18.4375 11.960938 19.71875 10.765625 C 21 9.578125 22.140625 8.238281 23.140625 6.75 C 24.148438 5.257812 24.941406 4.070312 25.515625 3.1875 C 27.742188 -0.0507812 29.773438 -3.414062 31.609375 -6.90625 C 33.441406 -10.394531 35.21875 -13.863281 36.9375 -17.3125 C 37.90625 -19.132812 38.816406 -20.945312 39.671875 -22.75 C 40.523438 -24.550781 41.394531 -26.394531 42.28125 -28.28125 C 42.820312 -29.476562 43.347656 -30.773438 43.859375 -32.171875 C 44.378906 -33.578125 45.007812 -34.769531 45.75 -35.75 Z M 26.328125 -77.890625 C 24.578125 -72.222656 23.0625 -66.457031 21.78125 -60.59375 C 20.5 -54.738281 19.222656 -49.050781 17.953125 -43.53125 C 21.804688 -51.195312 25.65625 -59.082031 29.5 -67.1875 C 33.34375 -75.300781 36.257812 -83.550781 38.25 -91.9375 C 37.476562 -88.90625 36.515625 -85.921875 35.359375 -82.984375 C 34.210938 -80.054688 33.078125 -77.1875 31.953125 -74.375 C 31.285156 -72.757812 30.597656 -71.15625 29.890625 -69.5625 C 29.179688 -67.976562 28.457031 -66.375 27.71875 -64.75 C 27.226562 -63.800781 26.613281 -62.65625 25.875 -61.3125 C 25.144531 -59.96875 24.625 -58.789062 24.3125 -57.78125 C 24.644531 -59.457031 25.335938 -61.207031 26.390625 -63.03125 C 27.453125 -64.851562 28.316406 -66.53125 28.984375 -68.0625 L 33.1875 -78.0625 C 34.363281 -81.125 35.660156 -84.460938 37.078125 -88.078125 C 38.492188 -91.703125 39.082031 -95.21875 38.84375 -98.625 L 38.828125 -98.75 C 38.753906 -100.382812 38.445312 -101.234375 37.90625 -101.296875 C 37.363281 -101.367188 36.738281 -101.046875 36.03125 -100.328125 C 35.320312 -99.609375 34.679688 -98.789062 34.109375 -97.875 C 33.546875 -96.957031 33.15625 -96.328125 32.9375 -95.984375 C 31.5 -93.054688 30.269531 -90.066406 29.25 -87.015625 C 28.238281 -83.972656 27.265625 -80.929688 26.328125 -77.890625 Z M 21.59375 -86.03125 C 21.082031 -84.675781 20.578125 -83.359375 20.078125 -82.078125 C 19.585938 -80.804688 19.117188 -79.457031 18.671875 -78.03125 C 18.597656 -77.9375 18.570312 -77.769531 18.59375 -77.53125 C 19.757812 -80.09375 20.953125 -82.640625 22.171875 -85.171875 C 23.398438 -87.710938 24.550781 -90.304688 25.625 -92.953125 C 25.144531 -91.835938 24.488281 -90.707031 23.65625 -89.5625 C 22.832031 -88.414062 22.144531 -87.238281 21.59375 -86.03125 Z M 4.640625 -20.84375 C 4.710938 -20.9375 4.742188 -21.039062 4.734375 -21.15625 C 4.722656 -21.28125 4.632812 -21.300781 4.46875 -21.21875 C 4.226562 -21.1875 4.019531 -20.609375 3.84375 -19.484375 C 3.664062 -18.359375 3.5625 -17.101562 3.53125 -15.71875 L 3.53125 -15.828125 C 3.320312 -13.671875 3.203125 -11.460938 3.171875 -9.203125 C 3.140625 -6.941406 3.148438 -4.710938 3.203125 -2.515625 L 3.203125 -6.453125 L 3.234375 -6.078125 C 3.191406 -6.484375 3.191406 -6.894531 3.234375 -7.3125 C 3.273438 -7.738281 3.316406 -8.15625 3.359375 -8.5625 C 3.585938 -10.46875 3.703125 -12.484375 3.703125 -14.609375 C 3.703125 -16.742188 3.984375 -18.703125 4.546875 -20.484375 C 4.546875 -20.484375 4.539062 -20.519531 4.53125 -20.59375 C 4.519531 -20.675781 4.554688 -20.757812 4.640625 -20.84375 Z M 4.640625 -20.84375 "/></g></g></g><g fill="#f65100" fill-opacity="1"><g transform="translate(166.89531, 211.811604)"><g><path d="M 59.171875 -35.3125 C 59.472656 -33.945312 59.203125 -32.523438 58.359375 -31.046875 C 57.515625 -29.578125 56.90625 -28.25 56.53125 -27.0625 C 55.894531 -25.195312 55.210938 -23.367188 54.484375 -21.578125 C 53.753906 -19.785156 52.976562 -18.035156 52.15625 -16.328125 C 51.195312 -14.421875 50.210938 -12.535156 49.203125 -10.671875 C 48.191406 -8.816406 47.070312 -7.015625 45.84375 -5.265625 C 44.914062 -3.785156 43.769531 -2.242188 42.40625 -0.640625 C 41.039062 0.960938 39.441406 2.019531 37.609375 2.53125 C 35.609375 3.050781 33.75 2.695312 32.03125 1.46875 C 30.320312 0.238281 29.054688 -1.238281 28.234375 -2.96875 C 26.429688 -6.382812 25.675781 -9.972656 25.96875 -13.734375 C 26.257812 -17.492188 26.765625 -21.175781 27.484375 -24.78125 C 27.484375 -24.78125 27.460938 -25 27.421875 -25.4375 C 27.378906 -25.882812 27.378906 -26.316406 27.421875 -26.734375 C 26.929688 -25.785156 26.347656 -24.765625 25.671875 -23.671875 C 25.003906 -22.578125 24.429688 -21.5625 23.953125 -20.625 C 23.335938 -19.40625 22.78125 -18.195312 22.28125 -17 C 21.78125 -15.8125 21.175781 -14.613281 20.46875 -13.40625 C 20.34375 -13.144531 19.769531 -12.285156 18.75 -10.828125 C 17.738281 -9.378906 16.597656 -7.816406 15.328125 -6.140625 C 14.054688 -4.460938 12.851562 -3.097656 11.71875 -2.046875 C 10.59375 -0.992188 9.84375 -0.695312 9.46875 -1.15625 C 9.46875 -1.15625 9.703125 -1.300781 10.171875 -1.59375 C 10.640625 -1.882812 10.828125 -2.066406 10.734375 -2.140625 C 9.285156 -0.929688 7.601562 -0.519531 5.6875 -0.90625 C 6.113281 -0.707031 6.285156 -0.601562 6.203125 -0.59375 C 5.328125 -0.425781 4.460938 -0.671875 3.609375 -1.328125 C 2.765625 -1.984375 2.035156 -2.773438 1.421875 -3.703125 C 0.804688 -4.628906 0.34375 -5.40625 0.03125 -6.03125 C -0.613281 -7.675781 -1.003906 -9.414062 -1.140625 -11.25 C -1.273438 -13.09375 -1.265625 -14.878906 -1.109375 -16.609375 C -0.796875 -20.253906 -0.0859375 -23.972656 1.015625 -27.765625 C 2.128906 -31.554688 3.554688 -35.050781 5.296875 -38.25 C 5.796875 -39.039062 6.289062 -39.847656 6.78125 -40.671875 C 7.28125 -41.492188 7.910156 -42.234375 8.671875 -42.890625 C 9.117188 -43.335938 9.554688 -43.679688 9.984375 -43.921875 C 10.410156 -44.171875 10.882812 -44.484375 11.40625 -44.859375 C 12.238281 -45.765625 13.09375 -46.539062 13.96875 -47.1875 C 14.84375 -47.84375 15.929688 -48.234375 17.234375 -48.359375 C 19.265625 -48.554688 20.972656 -48.082031 22.359375 -46.9375 C 23.742188 -45.800781 24.882812 -44.378906 25.78125 -42.671875 C 26.675781 -40.960938 27.40625 -39.359375 27.96875 -37.859375 C 28.8125 -39.242188 29.882812 -40.59375 31.1875 -41.90625 C 32.5 -43.21875 33.9375 -44.050781 35.5 -44.40625 C 37.0625 -44.769531 38.664062 -44.082031 40.3125 -42.34375 C 41.664062 -41 42.175781 -39.710938 41.84375 -38.484375 C 41.519531 -37.265625 41.09375 -35.9375 40.5625 -34.5 C 39.632812 -32.289062 38.84375 -29.898438 38.1875 -27.328125 C 37.53125 -24.765625 37.066406 -22.363281 36.796875 -20.125 C 36.859375 -20.300781 36.9375 -20.71875 37.03125 -21.375 C 37.125 -22.039062 37.296875 -22.425781 37.546875 -22.53125 C 37.691406 -22.625 37.703125 -22.03125 37.578125 -20.75 C 37.460938 -19.476562 37.285156 -17.925781 37.046875 -16.09375 C 36.816406 -14.269531 36.679688 -12.5 36.640625 -10.78125 C 36.597656 -9.0625 36.765625 -7.722656 37.140625 -6.765625 C 37.523438 -5.816406 38.203125 -5.613281 39.171875 -6.15625 C 40.148438 -6.707031 41.566406 -8.378906 43.421875 -11.171875 C 45.066406 -13.710938 46.625 -16.300781 48.09375 -18.9375 C 49.5625 -21.582031 50.988281 -24.242188 52.375 -26.921875 C 52.988281 -28.128906 53.601562 -29.375 54.21875 -30.65625 C 54.832031 -31.945312 55.492188 -33.203125 56.203125 -34.421875 C 56.398438 -34.765625 56.722656 -35.179688 57.171875 -35.671875 C 57.617188 -36.171875 58.039062 -36.457031 58.4375 -36.53125 C 58.84375 -36.613281 59.085938 -36.207031 59.171875 -35.3125 Z M 24.3125 -31.109375 C 24.582031 -31.617188 24.726562 -31.957031 24.75 -32.125 C 24.78125 -32.289062 24.773438 -32.617188 24.734375 -33.109375 C 24.703125 -33.429688 24.421875 -34.203125 23.890625 -35.421875 C 23.359375 -36.648438 22.890625 -37.859375 22.484375 -39.046875 C 22.085938 -40.234375 21.957031 -40.921875 22.09375 -41.109375 C 22.175781 -41.203125 22.347656 -40.945312 22.609375 -40.34375 C 22.867188 -39.75 23.128906 -39.160156 23.390625 -38.578125 C 23.660156 -37.992188 23.800781 -37.660156 23.8125 -37.578125 C 23.675781 -38.046875 23.460938 -38.738281 23.171875 -39.65625 C 22.878906 -40.582031 22.488281 -41.429688 22 -42.203125 C 21.519531 -42.972656 20.914062 -43.320312 20.1875 -43.25 C 18.875 -43.125 17.710938 -42.351562 16.703125 -40.9375 C 15.691406 -39.53125 14.878906 -37.976562 14.265625 -36.28125 C 13.648438 -34.59375 13.144531 -33.238281 12.75 -32.21875 C 11.8125 -29.320312 10.972656 -26.382812 10.234375 -23.40625 C 9.492188 -20.4375 9.023438 -17.425781 8.828125 -14.375 C 8.867188 -14.789062 9.070312 -15.875 9.4375 -17.625 C 9.800781 -19.382812 10.273438 -21.457031 10.859375 -23.84375 C 11.453125 -26.238281 12.066406 -28.59375 12.703125 -30.90625 C 13.335938 -33.21875 13.96875 -35.144531 14.59375 -36.6875 C 15.226562 -38.226562 15.75 -39.015625 16.15625 -39.046875 C 15.832031 -38.929688 15.410156 -38.191406 14.890625 -36.828125 C 14.367188 -35.460938 13.816406 -33.769531 13.234375 -31.75 C 12.648438 -29.726562 12.085938 -27.691406 11.546875 -25.640625 C 11.003906 -23.585938 10.5625 -21.785156 10.21875 -20.234375 C 9.882812 -18.679688 9.695312 -17.734375 9.65625 -17.390625 C 9.601562 -17.054688 9.46875 -16.265625 9.25 -15.015625 C 9.039062 -13.765625 8.96875 -12.566406 9.03125 -11.421875 C 9.101562 -10.285156 9.4375 -9.628906 10.03125 -9.453125 C 10.445312 -9.410156 10.972656 -9.703125 11.609375 -10.328125 C 12.242188 -10.960938 12.828125 -11.691406 13.359375 -12.515625 C 13.890625 -13.347656 14.222656 -13.898438 14.359375 -14.171875 C 16.453125 -17.242188 18.363281 -20.375 20.09375 -23.5625 L 22.84375 -28.375 C 23.050781 -28.800781 23.269531 -29.253906 23.5 -29.734375 C 23.738281 -30.210938 24.007812 -30.671875 24.3125 -31.109375 Z M 27.671875 -25.40625 L 28.484375 -28.421875 L 27.96875 -27.53125 C 27.894531 -27.351562 27.828125 -26.953125 27.765625 -26.328125 C 27.703125 -25.710938 27.671875 -25.40625 27.671875 -25.40625 Z M 25.125 -32.78125 C 25.425781 -33.132812 25.382812 -33.539062 25 -34 Z M 25.125 -32.78125 "/></g></g></g><g fill="#f65100" fill-opacity="1"><g transform="translate(219.995249, 206.708193)"><g><path d="M 29.046875 -33.03125 C 29.378906 -31.914062 29.222656 -30.710938 28.578125 -29.421875 C 27.929688 -28.128906 27.316406 -27.046875 26.734375 -26.171875 C 25.828125 -24.535156 24.9375 -22.9375 24.0625 -21.375 C 23.1875 -19.8125 22.253906 -18.242188 21.265625 -16.671875 C 20.203125 -14.921875 18.976562 -12.914062 17.59375 -10.65625 C 16.21875 -8.394531 14.492188 -6.921875 12.421875 -6.234375 C 12.097656 -6.203125 11.484375 -6.242188 10.578125 -6.359375 C 9.671875 -6.472656 8.816406 -6.632812 8.015625 -6.84375 C 7.210938 -7.0625 6.800781 -7.296875 6.78125 -7.546875 L 7.015625 -7.5625 C 6.503906 -7.757812 6.320312 -7.738281 6.46875 -7.5 C 6.613281 -7.269531 6.289062 -7.40625 5.5 -7.90625 C 4.894531 -8.257812 4.382812 -8.660156 3.96875 -9.109375 C 3.5625 -9.554688 3.128906 -10.046875 2.671875 -10.578125 C 1.929688 -11.410156 1.148438 -12.238281 0.328125 -13.0625 C -0.484375 -13.882812 -1.054688 -14.8125 -1.390625 -15.84375 C -1.421875 -16.09375 -1.492188 -16.617188 -1.609375 -17.421875 C -1.734375 -18.222656 -1.785156 -18.992188 -1.765625 -19.734375 C -1.753906 -20.484375 -1.585938 -20.867188 -1.265625 -20.890625 C -1.097656 -20.910156 -1.046875 -20.8125 -1.109375 -20.59375 C -1.171875 -20.382812 -1.160156 -20.285156 -1.078125 -20.296875 L -0.9375 -22.515625 C -1.070312 -22.265625 -1.175781 -22.097656 -1.25 -22.015625 C -1.332031 -22.003906 -1.332031 -22.453125 -1.25 -23.359375 C -1.175781 -24.265625 -1.054688 -25.34375 -0.890625 -26.59375 C -0.734375 -27.84375 -0.578125 -28.960938 -0.421875 -29.953125 C -0.273438 -30.953125 -0.164062 -31.539062 -0.09375 -31.71875 C 0.269531 -33.050781 0.613281 -34.390625 0.9375 -35.734375 C 1.257812 -37.085938 1.992188 -38.1875 3.140625 -39.03125 C 3.972656 -39.757812 4.960938 -40.132812 6.109375 -40.15625 C 7.253906 -40.1875 8.414062 -40.019531 9.59375 -39.65625 C 10.101562 -39.53125 10.882812 -39.253906 11.9375 -38.828125 C 13 -38.398438 13.5625 -37.859375 13.625 -37.203125 C 13.65625 -36.890625 13.554688 -36.632812 13.328125 -36.4375 C 13.097656 -36.25 12.914062 -36.070312 12.78125 -35.90625 C 12.851562 -35.988281 13.007812 -36.039062 13.25 -36.0625 C 13.425781 -36 13.269531 -35.492188 12.78125 -34.546875 C 12.300781 -33.597656 11.976562 -33.15625 11.8125 -33.21875 C 11.726562 -33.21875 11.710938 -33.335938 11.765625 -33.578125 C 11.828125 -33.828125 11.890625 -34.039062 11.953125 -34.21875 C 10.046875 -30.269531 8.53125 -25.988281 7.40625 -21.375 C 7.601562 -21.96875 7.921875 -22.957031 8.359375 -24.34375 C 8.796875 -25.738281 9.257812 -27.050781 9.75 -28.28125 C 10.25 -29.519531 10.546875 -30.101562 10.640625 -30.03125 C 10.710938 -30.039062 10.550781 -29.515625 10.15625 -28.453125 C 9.769531 -27.390625 9.304688 -26.050781 8.765625 -24.4375 C 8.222656 -22.832031 7.765625 -21.210938 7.390625 -19.578125 C 7.023438 -17.941406 6.882812 -16.492188 6.96875 -15.234375 C 7.050781 -13.972656 7.515625 -13.175781 8.359375 -12.84375 C 9.046875 -12.582031 9.789062 -12.695312 10.59375 -13.1875 C 11.40625 -13.675781 12.1875 -14.285156 12.9375 -15.015625 C 13.6875 -15.742188 14.25 -16.289062 14.625 -16.65625 C 15.675781 -17.644531 16.859375 -18.757812 18.171875 -20 C 19.492188 -21.238281 20.507812 -22.425781 21.21875 -23.5625 C 21.0625 -23.382812 20.78125 -23.273438 20.375 -23.234375 C 20.28125 -23.390625 20.453125 -23.9375 20.890625 -24.875 C 21.335938 -25.820312 21.929688 -26.90625 22.671875 -28.125 C 23.421875 -29.34375 24.132812 -30.453125 24.8125 -31.453125 C 25.5 -32.460938 25.957031 -33.0625 26.1875 -33.25 C 26.5625 -33.613281 27.085938 -33.867188 27.765625 -34.015625 C 28.453125 -34.171875 28.878906 -33.84375 29.046875 -33.03125 Z M 6.234375 -46.34375 C 6.234375 -46.34375 6.09375 -46.507812 5.8125 -46.84375 C 5.539062 -47.1875 5.398438 -47.398438 5.390625 -47.484375 C 5.367188 -47.640625 5.304688 -48.039062 5.203125 -48.6875 C 5.109375 -49.34375 5.09375 -49.957031 5.15625 -50.53125 C 5.226562 -51.101562 5.476562 -51.289062 5.90625 -51.09375 C 5.894531 -51.257812 6.082031 -51.625 6.46875 -52.1875 C 6.863281 -52.757812 6.898438 -52.617188 6.578125 -51.765625 C 7.503906 -53.242188 8.320312 -55.003906 9.03125 -57.046875 L 7.765625 -54.703125 C 8.234375 -55.910156 8.703125 -57.414062 9.171875 -59.21875 C 9.648438 -61.03125 9.914062 -62.140625 9.96875 -62.546875 C 9.957031 -62.628906 9.910156 -62.875 9.828125 -63.28125 C 9.742188 -63.6875 9.742188 -63.929688 9.828125 -64.015625 C 8.484375 -64.367188 8.019531 -64.894531 8.4375 -65.59375 C 8.863281 -66.289062 9.34375 -66.875 9.875 -67.34375 C 9.625 -67.3125 9.453125 -67.378906 9.359375 -67.546875 C 9.097656 -67.742188 9.203125 -67.945312 9.671875 -68.15625 C 10.148438 -68.375 10.460938 -68.535156 10.609375 -68.640625 C 11.472656 -69.128906 12.398438 -69.335938 13.390625 -69.265625 C 14.378906 -69.191406 15.296875 -68.992188 16.140625 -68.671875 C 16.835938 -68.335938 17.507812 -67.785156 18.15625 -67.015625 C 18.800781 -66.253906 19.273438 -65.523438 19.578125 -64.828125 C 19.898438 -64.046875 19.878906 -63.222656 19.515625 -62.359375 C 19.148438 -61.503906 18.703125 -60.804688 18.171875 -60.265625 C 17.960938 -60.003906 17.679688 -59.75 17.328125 -59.5 C 16.972656 -59.257812 16.65625 -59.003906 16.375 -58.734375 C 16.082031 -58.296875 15.921875 -57.8125 15.890625 -57.28125 C 15.859375 -56.75 15.703125 -56.265625 15.421875 -55.828125 C 15.285156 -55.472656 15.0625 -55.195312 14.75 -55 C 14.4375 -54.8125 14.21875 -54.554688 14.09375 -54.234375 C 13.644531 -53.847656 13.640625 -53.472656 14.078125 -53.109375 C 13.617188 -52.816406 13.238281 -52.488281 12.9375 -52.125 C 12.46875 -51.101562 12.015625 -50.265625 11.578125 -49.609375 C 11.148438 -48.953125 10.597656 -48.300781 9.921875 -47.65625 C 10.535156 -48.125 11.082031 -48.609375 11.5625 -49.109375 C 12.050781 -49.609375 12.539062 -50.289062 13.03125 -51.15625 C 13.882812 -52.46875 14.976562 -53.476562 16.3125 -54.1875 C 15.800781 -53.476562 15.414062 -52.742188 15.15625 -51.984375 C 14.90625 -51.222656 14.441406 -50.5625 13.765625 -50 C 13.304688 -49.71875 13.046875 -49.632812 12.984375 -49.75 C 12.929688 -49.863281 12.90625 -49.941406 12.90625 -49.984375 C 12.90625 -50.023438 12.640625 -49.773438 12.109375 -49.234375 C 12.109375 -49.234375 12.207031 -49.257812 12.40625 -49.3125 C 12.601562 -49.375 12.628906 -49.316406 12.484375 -49.140625 C 11.960938 -48.597656 11.445312 -47.972656 10.9375 -47.265625 C 10.4375 -46.566406 9.835938 -46.019531 9.140625 -45.625 C 8.816406 -45.507812 8.5 -45.351562 8.1875 -45.15625 C 7.882812 -44.96875 7.523438 -44.9375 7.109375 -45.0625 C 6.671875 -45.269531 6.460938 -45.5 6.484375 -45.75 C 6.503906 -46 6.421875 -46.195312 6.234375 -46.34375 Z M 6.734375 -17.109375 C 6.785156 -17.285156 6.78125 -17.328125 6.71875 -17.234375 L 6.5625 -16.234375 L 6.734375 -17 Z M 7.25 -53.6875 L 7.671875 -54.46875 C 7.617188 -54.207031 7.535156 -54.007812 7.421875 -53.875 C 7.304688 -53.75 7.25 -53.6875 7.25 -53.6875 Z M 6.265625 -51.25 C 6.191406 -51.15625 6.113281 -51.109375 6.03125 -51.109375 C 6.113281 -51.109375 6.15625 -51.085938 6.15625 -51.046875 C 6.164062 -51.003906 6.171875 -50.984375 6.171875 -50.984375 C 6.242188 -51.078125 6.273438 -51.164062 6.265625 -51.25 Z M 6.265625 -51.25 "/></g></g></g><g fill="#f65100" fill-opacity="1"><g transform="translate(243.013333, 204.495936)"><g><path d="M 56.09375 -98.078125 C 58.144531 -98.941406 60.113281 -98.910156 62 -97.984375 C 63.894531 -97.066406 65.503906 -95.703125 66.828125 -93.890625 C 68.148438 -92.085938 68.988281 -90.21875 69.34375 -88.28125 C 69.238281 -88.445312 69.21875 -88.382812 69.28125 -88.09375 C 69.351562 -87.8125 69.390625 -87.671875 69.390625 -87.671875 C 69.421875 -87.347656 69.484375 -86.90625 69.578125 -86.34375 C 69.671875 -85.78125 69.644531 -85.453125 69.5 -85.359375 C 69.570312 -85.441406 69.550781 -85.625 69.4375 -85.90625 C 69.332031 -86.1875 69.222656 -86.445312 69.109375 -86.6875 C 69.296875 -85.632812 69.375 -84.59375 69.34375 -83.5625 C 69.320312 -82.53125 69.285156 -81.476562 69.234375 -80.40625 C 69.347656 -80.75 69.453125 -81.085938 69.546875 -81.421875 C 69.648438 -81.765625 69.703125 -81.9375 69.703125 -81.9375 C 69.941406 -81.132812 69.941406 -80.0625 69.703125 -78.71875 C 69.460938 -77.382812 69.132812 -76.109375 68.71875 -74.890625 C 68.300781 -73.671875 68.003906 -72.722656 67.828125 -72.046875 C 67.234375 -69.609375 66.4375 -67.234375 65.4375 -64.921875 C 64.4375 -62.617188 63.300781 -60.382812 62.03125 -58.21875 C 60.882812 -56.375 59.722656 -54.554688 58.546875 -52.765625 C 57.367188 -50.972656 56.082031 -49.273438 54.6875 -47.671875 C 53.507812 -46.160156 52.070312 -44.398438 50.375 -42.390625 C 48.6875 -40.390625 46.894531 -39.050781 45 -38.375 C 50.425781 -44.0625 55.023438 -50.28125 58.796875 -57.03125 C 62.578125 -63.789062 64.785156 -71.175781 65.421875 -79.1875 C 64.898438 -73.394531 63.253906 -67.847656 60.484375 -62.546875 C 57.722656 -57.242188 54.59375 -52.367188 51.09375 -47.921875 C 49.34375 -45.628906 47.65625 -43.28125 46.03125 -40.875 C 44.414062 -38.46875 42.550781 -36.382812 40.4375 -34.625 C 38.914062 -33.40625 37.15625 -32.085938 35.15625 -30.671875 C 33.164062 -29.253906 31.113281 -28.03125 29 -27 C 26.882812 -25.976562 24.8125 -25.410156 22.78125 -25.296875 C 23.925781 -23.609375 25.085938 -21.921875 26.265625 -20.234375 C 27.453125 -18.546875 28.65625 -16.894531 29.875 -15.28125 L 25.328125 -21.84375 C 26.347656 -20.550781 27.578125 -19.007812 29.015625 -17.21875 C 30.453125 -15.4375 31.910156 -13.671875 33.390625 -11.921875 C 34.867188 -10.179688 36.160156 -8.6875 37.265625 -7.4375 C 38.367188 -6.1875 39.0625 -5.421875 39.34375 -5.140625 L 48.671875 3.703125 C 49.742188 4.648438 50.867188 5.742188 52.046875 6.984375 C 53.234375 8.222656 54.398438 9.238281 55.546875 10.03125 C 55.453125 9.875 55.351562 9.71875 55.25 9.5625 C 55.15625 9.414062 55.0625 9.300781 54.96875 9.21875 C 54.96875 9.132812 55.351562 9.28125 56.125 9.65625 C 56.90625 10.03125 57.703125 10.40625 58.515625 10.78125 C 59.328125 11.164062 59.820312 11.382812 60 11.4375 C 60.65625 11.625 61.300781 11.789062 61.9375 11.9375 C 62.570312 12.082031 63.164062 12.085938 63.71875 11.953125 C 65.34375 11.796875 66.957031 11.128906 68.5625 9.953125 C 70.164062 8.773438 71.453125 7.601562 72.421875 6.4375 C 72.929688 5.726562 73.429688 5.1875 73.921875 4.8125 C 74.421875 4.4375 74.785156 5.0625 75.015625 6.6875 C 75.203125 7.8125 74.867188 9.03125 74.015625 10.34375 C 72.304688 13.050781 70.226562 15.75 67.78125 18.4375 C 65.34375 21.132812 62.394531 22.8125 58.9375 23.46875 C 57.632812 23.675781 56.378906 23.65625 55.171875 23.40625 C 53.960938 23.15625 52.757812 22.757812 51.5625 22.21875 C 51.382812 22.0625 50.71875 21.546875 49.5625 20.671875 C 48.414062 19.804688 47.328125 18.929688 46.296875 18.046875 C 45.265625 17.160156 44.742188 16.675781 44.734375 16.59375 C 44.816406 16.582031 44.878906 16.597656 44.921875 16.640625 C 44.972656 16.679688 45 16.703125 45 16.703125 C 44.90625 16.546875 44.8125 16.453125 44.71875 16.421875 C 44.632812 16.390625 44.546875 16.335938 44.453125 16.265625 C 44.640625 16.484375 44.472656 16.453125 43.953125 16.171875 C 43.441406 15.898438 43.144531 15.726562 43.0625 15.65625 C 42.613281 15.289062 42.203125 14.898438 41.828125 14.484375 C 41.460938 14.078125 41.050781 13.644531 40.59375 13.1875 C 39.957031 12.425781 39.296875 11.707031 38.609375 11.03125 C 37.929688 10.363281 37.234375 9.65625 36.515625 8.90625 C 36.335938 8.75 35.925781 8.316406 35.28125 7.609375 C 34.632812 6.898438 33.9375 6.066406 33.1875 5.109375 C 32.445312 4.160156 31.828125 3.273438 31.328125 2.453125 C 30.835938 1.640625 30.710938 1.144531 30.953125 0.96875 C 31.097656 0.875 31.222656 0.921875 31.328125 1.109375 C 31.429688 1.304688 31.523438 1.398438 31.609375 1.390625 C 31.316406 1.015625 31.03125 0.628906 30.75 0.234375 C 30.476562 -0.148438 30.238281 -0.539062 30.03125 -0.9375 C 30.039062 -0.851562 30.066406 -0.769531 30.109375 -0.6875 C 30.160156 -0.601562 30.15625 -0.484375 30.09375 -0.328125 C 30.007812 -0.316406 29.628906 -0.804688 28.953125 -1.796875 C 28.285156 -2.796875 27.492188 -3.988281 26.578125 -5.375 C 25.671875 -6.769531 24.851562 -8.046875 24.125 -9.203125 C 23.40625 -10.359375 22.953125 -11.050781 22.765625 -11.28125 C 22.085938 -12.363281 21.375 -13.398438 20.625 -14.390625 C 19.875 -15.390625 19.273438 -16.476562 18.828125 -17.65625 C 18.503906 -18.457031 18.34375 -19.082031 18.34375 -19.53125 C 18.34375 -19.988281 18.109375 -20.515625 17.640625 -21.109375 C 16.265625 -16.710938 15 -12.144531 13.84375 -7.40625 C 12.695312 -2.664062 12.023438 2.003906 11.828125 6.609375 C 11.648438 6.460938 11.550781 6.304688 11.53125 6.140625 C 10.71875 7.117188 9.632812 7.835938 8.28125 8.296875 C 6.9375 8.753906 5.597656 8.84375 4.265625 8.5625 C 2.929688 8.289062 1.921875 7.566406 1.234375 6.390625 C 0.523438 5.078125 0.1875 3.535156 0.21875 1.765625 C 0.257812 -0.00390625 0.457031 -1.785156 0.8125 -3.578125 C 1.175781 -5.378906 1.421875 -6.941406 1.546875 -8.265625 C 1.929688 -10.992188 2.257812 -13.703125 2.53125 -16.390625 C 2.8125 -19.085938 3.273438 -21.738281 3.921875 -24.34375 C 4.242188 -25.363281 4.582031 -26.359375 4.9375 -27.328125 C 5.300781 -28.304688 5.632812 -29.265625 5.9375 -30.203125 C 6.007812 -30.367188 6.09375 -30.804688 6.1875 -31.515625 C 6.28125 -32.222656 6.375 -32.910156 6.46875 -33.578125 C 6.570312 -34.242188 6.664062 -34.578125 6.75 -34.578125 C 6.84375 -34.503906 6.898438 -34.34375 6.921875 -34.09375 C 6.992188 -34.269531 7.039062 -34.441406 7.0625 -34.609375 C 7.09375 -34.773438 7.097656 -34.941406 7.078125 -35.109375 C 6.941406 -34.765625 6.878906 -34.753906 6.890625 -35.078125 C 6.898438 -35.410156 6.921875 -35.84375 6.953125 -36.375 C 6.992188 -36.90625 7.015625 -37.171875 7.015625 -37.171875 C 7.179688 -37.941406 7.367188 -38.703125 7.578125 -39.453125 C 7.796875 -40.210938 8.03125 -40.972656 8.28125 -41.734375 C 8.65625 -42.921875 8.953125 -44.078125 9.171875 -45.203125 C 9.398438 -46.328125 9.578125 -47.472656 9.703125 -48.640625 C 9.765625 -48.878906 9.941406 -49.585938 10.234375 -50.765625 C 10.523438 -51.953125 10.890625 -53.257812 11.328125 -54.6875 C 11.773438 -56.125 12.210938 -57.375 12.640625 -58.4375 C 13.066406 -59.507812 13.40625 -60.015625 13.65625 -59.953125 C 13.820312 -59.972656 13.835938 -59.832031 13.703125 -59.53125 C 13.566406 -59.226562 13.546875 -59.039062 13.640625 -58.96875 C 13.816406 -59.5625 14.003906 -60.128906 14.203125 -60.671875 C 14.398438 -61.222656 14.550781 -61.796875 14.65625 -62.390625 C 14.519531 -62.035156 14.375 -61.816406 14.21875 -61.734375 C 14.144531 -61.722656 14.359375 -62.5 14.859375 -64.0625 C 15.367188 -65.625 15.992188 -67.460938 16.734375 -69.578125 C 17.472656 -71.703125 18.125 -73.632812 18.6875 -75.375 C 19.257812 -77.113281 19.613281 -78.148438 19.75 -78.484375 C 20.195312 -79.921875 20.632812 -81.359375 21.0625 -82.796875 C 21.488281 -84.234375 22.050781 -85.59375 22.75 -86.875 C 23.113281 -87.40625 23.460938 -87.832031 23.796875 -88.15625 C 24.128906 -88.476562 24.40625 -88.8125 24.625 -89.15625 C 24.757812 -89.414062 24.867188 -89.753906 24.953125 -90.171875 C 25.035156 -90.585938 25.140625 -90.96875 25.265625 -91.3125 C 25.535156 -92 25.921875 -92.921875 26.421875 -94.078125 C 26.921875 -95.234375 27.566406 -96.007812 28.359375 -96.40625 C 29.597656 -97.09375 30.722656 -96.867188 31.734375 -95.734375 C 32.742188 -94.609375 33.457031 -93.578125 33.875 -92.640625 C 34.375 -91.691406 34.585938 -90.945312 34.515625 -90.40625 C 34.441406 -89.875 34.238281 -89.257812 33.90625 -88.5625 L 34.25 -88.859375 C 34.40625 -88.867188 34.320312 -88.445312 34 -87.59375 C 33.675781 -86.75 33.328125 -85.921875 32.953125 -85.109375 C 32.578125 -84.296875 32.304688 -83.878906 32.140625 -83.859375 C 32.054688 -83.847656 32.078125 -84.050781 32.203125 -84.46875 C 32.328125 -84.894531 32.453125 -85.28125 32.578125 -85.625 C 28.066406 -76.257812 24.4375 -67.117188 21.6875 -58.203125 C 18.945312 -49.285156 16.753906 -40.613281 15.109375 -32.1875 C 15.929688 -36.363281 16.988281 -40.460938 18.28125 -44.484375 C 19.582031 -48.503906 21.070312 -52.476562 22.75 -56.40625 L 21.78125 -53.484375 L 24.109375 -59.96875 C 23.304688 -57.1875 22.546875 -54.410156 21.828125 -51.640625 C 21.117188 -48.867188 20.535156 -46.03125 20.078125 -43.125 C 21.179688 -46.09375 22.351562 -48.988281 23.59375 -51.8125 C 24.84375 -54.632812 26.234375 -57.429688 27.765625 -60.203125 C 29.171875 -62.722656 30.664062 -65.097656 32.25 -67.328125 C 33.832031 -69.566406 35.375 -71.863281 36.875 -74.21875 C 36.875 -74.21875 37.019531 -74.625 37.3125 -75.4375 C 37.601562 -76.25 37.910156 -76.710938 38.234375 -76.828125 C 38.160156 -76.734375 37.96875 -76.363281 37.65625 -75.71875 C 37.34375 -75.070312 37.222656 -74.796875 37.296875 -74.890625 L 38.796875 -77.25 C 38.722656 -77.238281 38.640625 -77.265625 38.546875 -77.328125 C 38.617188 -78.253906 39.113281 -79.289062 40.03125 -80.4375 C 40.957031 -81.582031 41.664062 -82.472656 42.15625 -83.109375 C 42.894531 -84.066406 43.644531 -85.015625 44.40625 -85.953125 C 45.175781 -86.898438 45.9375 -87.8125 46.6875 -88.6875 C 47.925781 -90.207031 49.347656 -91.96875 50.953125 -93.96875 C 52.566406 -95.96875 54.28125 -97.335938 56.09375 -98.078125 Z M 57.40625 -83.21875 L 57.40625 -83.34375 C 57.332031 -85.707031 56.890625 -87.054688 56.078125 -87.390625 C 55.265625 -87.722656 54.289062 -87.421875 53.15625 -86.484375 C 52.03125 -85.554688 50.859375 -84.335938 49.640625 -82.828125 C 48.429688 -81.328125 47.359375 -79.875 46.421875 -78.46875 C 45.492188 -77.070312 44.847656 -76.109375 44.484375 -75.578125 C 41.617188 -71.285156 38.707031 -66.84375 35.75 -62.25 C 32.789062 -57.664062 30.175781 -53.09375 27.90625 -48.53125 C 27.957031 -48.863281 28.148438 -49.046875 28.484375 -49.078125 C 28.484375 -49.078125 28.316406 -48.671875 27.984375 -47.859375 C 27.648438 -47.054688 27.269531 -46.117188 26.84375 -45.046875 C 26.414062 -43.984375 26.015625 -43.003906 25.640625 -42.109375 C 25.273438 -41.222656 25.023438 -40.6875 24.890625 -40.5 C 24.210938 -38.882812 23.546875 -37.242188 22.890625 -35.578125 C 22.234375 -33.921875 21.570312 -32.238281 20.90625 -30.53125 C 21.0625 -30.632812 21.566406 -30.925781 22.421875 -31.40625 C 23.273438 -31.894531 24.113281 -32.34375 24.9375 -32.75 C 25.757812 -33.164062 26.21875 -33.335938 26.3125 -33.265625 C 26.3125 -33.179688 25.882812 -32.867188 25.03125 -32.328125 C 24.1875 -31.796875 23.535156 -31.351562 23.078125 -31 C 29.015625 -34.175781 34.28125 -38.28125 38.875 -43.3125 C 43.46875 -48.34375 47.367188 -53.800781 50.578125 -59.6875 C 49.523438 -57.789062 48.382812 -55.957031 47.15625 -54.1875 C 45.925781 -52.425781 44.660156 -50.671875 43.359375 -48.921875 C 42.554688 -47.941406 41.710938 -46.9375 40.828125 -45.90625 C 39.941406 -44.882812 39.054688 -43.878906 38.171875 -42.890625 C 37.710938 -42.515625 37.066406 -42 36.234375 -41.34375 C 35.398438 -40.6875 34.757812 -40.085938 34.3125 -39.546875 C 34.820312 -40.265625 35.515625 -40.972656 36.390625 -41.671875 C 37.265625 -42.378906 37.960938 -43.035156 38.484375 -43.640625 C 39.816406 -45.003906 41.109375 -46.441406 42.359375 -47.953125 C 43.671875 -49.722656 44.9375 -51.484375 46.15625 -53.234375 C 47.375 -54.992188 48.507812 -56.820312 49.5625 -58.71875 C 51.59375 -62.28125 53.425781 -66.171875 55.0625 -70.390625 C 56.707031 -74.609375 57.492188 -78.84375 57.421875 -83.09375 C 57.347656 -83 57.3125 -82.929688 57.3125 -82.890625 C 57.320312 -82.847656 57.351562 -82.957031 57.40625 -83.21875 Z M 29.234375 -75.59375 C 28.984375 -74.832031 28.726562 -74.09375 28.46875 -73.375 C 28.21875 -72.65625 27.921875 -71.945312 27.578125 -71.25 L 30.078125 -78.5 C 30.210938 -78.757812 30.140625 -78.40625 29.859375 -77.4375 C 29.585938 -76.46875 29.378906 -75.851562 29.234375 -75.59375 Z M 23.5625 -24.75 C 23.476562 -24.738281 23.625 -24.46875 24 -23.9375 C 24.375 -23.40625 24.816406 -22.707031 25.328125 -21.84375 C 24.742188 -22.707031 24.285156 -23.382812 23.953125 -23.875 C 23.617188 -24.363281 23.488281 -24.65625 23.5625 -24.75 Z M 33.640625 -10.734375 L 33.78125 -10.5 L 33.765625 -10.625 C 33.679688 -10.78125 33.640625 -10.835938 33.640625 -10.796875 C 33.640625 -10.753906 33.640625 -10.734375 33.640625 -10.734375 Z M 33.640625 -10.734375 C 33.640625 -10.734375 33.550781 -10.804688 33.375 -10.953125 C 33.550781 -10.804688 33.640625 -10.734375 33.640625 -10.734375 Z M 26.984375 -46.734375 C 26.984375 -46.734375 27 -46.753906 27.03125 -46.796875 C 27.070312 -46.847656 27.09375 -46.910156 27.09375 -46.984375 C 27.09375 -46.910156 27.070312 -46.867188 27.03125 -46.859375 C 26.988281 -46.859375 26.972656 -46.816406 26.984375 -46.734375 Z M 26.984375 -46.734375 "/></g></g></g></svg>